<svg viewBox="0 0 960 392" role="img" aria-labelledby="ex-t ex-d" xmlns="http://www.w3.org/2000/svg"><title id="ex-t">實驗架構：探測、注入、量測</title><desc id="ex-d">client VM 上三個探測程式以多主機清單連三台 Doris VM 並每秒寫一行 log；demo.sh break 對任一台的 FE、BE 或整台 VM 注入故障並在 log 記 EVENT；demo.sh measure 讀 log 算出可用性等級與中斷秒數。</desc><defs><marker id="arrow" markerWidth="8" markerHeight="6" refX="7" refY="3" orient="auto"><polygon points="0 0, 8 3, 0 6" fill="#4f5e56"/></marker><marker id="arrow-g" markerWidth="8" markerHeight="6" refX="7" refY="3" orient="auto"><polygon points="0 0, 8 3, 0 6" fill="#11a679"/></marker></defs><rect width="100%" height="100%" fill="#fff"/><rect x="40" y="48" width="280" height="232" rx="8" fill="rgba(15,26,20,.02)" stroke="#d9eee8"/><rect x="48" y="52" width="152" height="12" rx="2" fill="#fff"/><text x="124" y="61" font-family="JetBrains Mono,monospace" font-size="8" fill="#4f5e56" letter-spacing="0.06em" text-anchor="middle">doris-client · 同一 VPC</text><rect x="400" y="48" width="520" height="232" rx="8" fill="rgba(15,26,20,.02)" stroke="#d9eee8"/><rect x="408" y="52" width="176" height="12" rx="2" fill="#fff"/><text x="496" y="61" font-family="JetBrains Mono,monospace" font-size="8" fill="#4f5e56" letter-spacing="0.06em" text-anchor="middle">Doris ×3 · asia-east1 a / b / c</text><path d="M296,128 H424" fill="none" stroke="#4f5e56" stroke-width="1.2" marker-end="url(#arrow)"/><rect x="310.1" y="107" width="99.80000000000001" height="12" rx="2" fill="#fff"/><text x="360" y="116" font-family="JetBrains Mono,monospace" font-size="8" fill="#4f5e56" letter-spacing="0.06em" text-anchor="middle">多主機清單 9030 / 8070</text><path d="M180,160 V200" fill="none" stroke="#4f5e56" stroke-width="1.2" marker-end="url(#arrow)"/><rect x="198.2" y="175" width="83.60000000000001" height="12" rx="2" fill="#fff"/><text x="240" y="184" font-family="JetBrains Mono,monospace" font-size="8" fill="#4f5e56" letter-spacing="0.06em" text-anchor="middle">每秒一行 OK / FAIL</text><path d="M180,256 V304" fill="none" stroke="#4f5e56" stroke-width="1.2" marker-end="url(#arrow)"/><rect x="192.9" y="275" width="78.2" height="12" rx="2" fill="#fff"/><text x="232" y="284" font-family="JetBrains Mono,monospace" font-size="8" fill="#4f5e56" letter-spacing="0.06em" text-anchor="middle">measure 讀 log</text><path d="M424,336 H368 Q360,336 360,328 V236 Q360,228 352,228 H296" fill="none" stroke="#4f5e56" stroke-width="1.2" stroke-dasharray="4,3" marker-end="url(#arrow)"/><rect x="381.1" y="271" width="45.800000000000004" height="12" rx="2" fill="#fff"/><text x="404" y="280" font-family="JetBrains Mono,monospace" font-size="8" fill="#4f5e56" letter-spacing="0.06em" text-anchor="middle">EVENT 行</text><path d="M536,304 V168" fill="none" stroke="#11a679" stroke-width="1.2" marker-end="url(#arrow-g)"/><rect x="570.1" y="231" width="99.80000000000001" height="12" rx="2" fill="#fff"/><text x="620" y="240" font-family="JetBrains Mono,monospace" font-size="8" fill="#11a679" letter-spacing="0.06em" text-anchor="middle">對 FE / BE / VM 注入</text><rect x="64" y="96" width="232" height="64" rx="8" fill="#fff"/><rect x="64" y="96" width="232" height="64" rx="8" fill="#fff" stroke="#0f1a14" stroke-width="1"/><rect x="72" y="102" width="38" height="12" rx="2" fill="transparent" stroke="rgba(15,26,20,.3)" stroke-width="0.8"/><text x="91" y="111" font-family="JetBrains Mono,monospace" font-size="8" fill="#4f5e56" letter-spacing="0.06em" text-anchor="middle">PROBE</text><text x="180.0" y="126.0" font-family="Inter,Noto Sans TC,sans-serif" font-size="12" font-weight="600" fill="#0f1a14" text-anchor="middle">探測 ×3</text><text x="180.0" y="140.0" font-family="JetBrains Mono,monospace" font-size="9" fill="#4f5e56" text-anchor="middle">mysql / jdbc / arrow-flight · 每秒一步</text><rect x="64" y="200" width="232" height="56" rx="8" fill="#fff"/><rect x="64" y="200" width="232" height="56" rx="8" fill="#fff" stroke="#d9eee8" stroke-width="1" stroke-dasharray="4,3"/><rect x="72" y="206" width="26" height="12" rx="2" fill="transparent" stroke="rgba(15,26,20,.3)" stroke-width="0.8"/><text x="85" y="215" font-family="JetBrains Mono,monospace" font-size="8" fill="#4f5e56" letter-spacing="0.06em" text-anchor="middle">LOG</text><text x="180.0" y="226.0" font-family="Inter,Noto Sans TC,sans-serif" font-size="12" font-weight="600" fill="#0f1a14" text-anchor="middle">client log ×3</text><text x="180.0" y="240.0" font-family="JetBrains Mono,monospace" font-size="9" fill="#4f5e56" text-anchor="middle">OK · FAIL · EVENT</text><rect x="64" y="304" width="232" height="64" rx="8" fill="#fff"/><rect x="64" y="304" width="232" height="64" rx="8" fill="#fff" stroke="#0f1a14" stroke-width="1"/><rect x="72" y="310" width="50" height="12" rx="2" fill="transparent" stroke="rgba(15,26,20,.3)" stroke-width="0.8"/><text x="97" y="319" font-family="JetBrains Mono,monospace" font-size="8" fill="#4f5e56" letter-spacing="0.06em" text-anchor="middle">MEASURE</text><text x="180.0" y="334.0" font-family="Inter,Noto Sans TC,sans-serif" font-size="12" font-weight="600" fill="#0f1a14" text-anchor="middle">demo.sh measure</text><text x="180.0" y="348.0" font-family="JetBrains Mono,monospace" font-size="9" fill="#4f5e56" text-anchor="middle">可用性等級 + 中斷秒數</text><rect x="424" y="96" width="144" height="72" rx="8" fill="#fff"/><rect x="424" y="96" width="144" height="72" rx="8" fill="#fff" stroke="#0f1a14" stroke-width="1"/><rect x="432" y="102" width="44" height="12" rx="2" fill="transparent" stroke="rgba(15,26,20,.3)" stroke-width="0.8"/><text x="454" y="111" font-family="JetBrains Mono,monospace" font-size="8" fill="#4f5e56" letter-spacing="0.06em" text-anchor="middle">ZONE A</text><text x="496.0" y="130.0" font-family="Inter,Noto Sans TC,sans-serif" font-size="12" font-weight="600" fill="#0f1a14" text-anchor="middle">doris-1</text><text x="496.0" y="144.0" font-family="JetBrains Mono,monospace" font-size="9" fill="#4f5e56" text-anchor="middle">FE + BE</text><rect x="592" y="96" width="144" height="72" rx="8" fill="#fff"/><rect x="592" y="96" width="144" height="72" rx="8" fill="#fff" stroke="#0f1a14" stroke-width="1"/><rect x="600" y="102" width="44" height="12" rx="2" fill="transparent" stroke="rgba(15,26,20,.3)" stroke-width="0.8"/><text x="622" y="111" font-family="JetBrains Mono,monospace" font-size="8" fill="#4f5e56" letter-spacing="0.06em" text-anchor="middle">ZONE B</text><text x="664.0" y="130.0" font-family="Inter,Noto Sans TC,sans-serif" font-size="12" font-weight="600" fill="#0f1a14" text-anchor="middle">doris-2</text><text x="664.0" y="144.0" font-family="JetBrains Mono,monospace" font-size="9" fill="#4f5e56" text-anchor="middle">FE + BE</text><rect x="760" y="96" width="144" height="72" rx="8" fill="#fff"/><rect x="760" y="96" width="144" height="72" rx="8" fill="#fff" stroke="#0f1a14" stroke-width="1"/><rect x="768" y="102" width="44" height="12" rx="2" fill="transparent" stroke="rgba(15,26,20,.3)" stroke-width="0.8"/><text x="790" y="111" font-family="JetBrains Mono,monospace" font-size="8" fill="#4f5e56" letter-spacing="0.06em" text-anchor="middle">ZONE C</text><text x="832.0" y="130.0" font-family="Inter,Noto Sans TC,sans-serif" font-size="12" font-weight="600" fill="#0f1a14" text-anchor="middle">doris-3</text><text x="832.0" y="144.0" font-family="JetBrains Mono,monospace" font-size="9" fill="#4f5e56" text-anchor="middle">FE + BE</text><rect x="424" y="304" width="224" height="64" rx="8" fill="#fff"/><rect x="424" y="304" width="224" height="64" rx="8" fill="rgba(17,166,121,.10)" stroke="#11a679" stroke-width="1.2"/><rect x="432" y="310" width="44" height="12" rx="2" fill="transparent" stroke="rgba(15,26,20,.3)" stroke-width="0.8"/><text x="454" y="319" font-family="JetBrains Mono,monospace" font-size="8" fill="#4f5e56" letter-spacing="0.06em" text-anchor="middle">INJECT</text><text x="536.0" y="334.0" font-family="Inter,Noto Sans TC,sans-serif" font-size="12" font-weight="600" fill="#0f1a14" text-anchor="middle">demo.sh break</text><text x="536.0" y="348.0" font-family="JetBrains Mono,monospace" font-size="9" fill="#4f5e56" text-anchor="middle">crash · dead · hang · stop</text></svg>